<svg width="25" height="24" viewBox="0 0 25 24" fill="none" xmlns="http://www.w3.org/2000/svg">
<path d="M21.9691 9.95472H21.1837V9.91426H12.4087V13.8143H17.9189C17.115 16.0845 14.9549 17.7143 12.4087 17.7143C9.17803 17.7143 6.55869 15.0949 6.55869 11.8643C6.55869 8.6336 9.17803 6.01426 12.4087 6.01426C13.9 6.01426 15.2567 6.57683 16.2897 7.49577L19.0475 4.73798C17.3061 3.1151 14.9768 2.11426 12.4087 2.11426C7.02425 2.11426 2.65869 6.47982 2.65869 11.8643C2.65869 17.2487 7.02425 21.6143 12.4087 21.6143C17.7931 21.6143 22.1587 17.2487 22.1587 11.8643C22.1587 11.2105 22.0914 10.5724 21.9691 9.95472Z" fill="#FFC107"/>
<path d="M3.78345 7.32612L6.98681 9.67538C7.85358 7.52941 9.95276 6.01426 12.4093 6.01426C13.9005 6.01426 15.2572 6.57683 16.2903 7.49577L19.048 4.73798C17.3067 3.1151 14.9774 2.11426 12.4093 2.11426C8.6643 2.11426 5.41657 4.22855 3.78345 7.32612Z" fill="#FF3D00"/>
<path d="M12.408 21.6135C14.9264 21.6135 17.2147 20.6497 18.9449 19.0824L15.9272 16.5289C14.9154 17.2984 13.6791 17.7145 12.408 17.7135C9.87199 17.7135 7.7187 16.0965 6.9075 13.8398L3.72803 16.2895C5.34165 19.4471 8.61863 21.6135 12.408 21.6135Z" fill="#4CAF50"/>
<path d="M21.9691 9.95501H21.1837V9.91455H12.4087V13.8146H17.9189C17.5344 14.8951 16.8417 15.8392 15.9265 16.5304L15.928 16.5294L18.9456 19.083C18.7321 19.277 22.1587 16.7396 22.1587 11.8646C22.1587 11.2108 22.0914 10.5727 21.9691 9.95501Z" fill="#1976D2"/>
</svg>
