<svg width="25" height="24" viewBox="0 0 25 24" fill="none" xmlns="http://www.w3.org/2000/svg">
<path d="M5.1765 18.8447C5.40138 20.515 6.78482 21.8235 8.46835 21.9009C9.88496 21.966 11.324 22 12.9087 22C14.4934 22 15.9324 21.966 17.349 21.9009C19.0326 21.8235 20.416 20.515 20.6409 18.8447C20.7877 17.7547 20.9087 16.6376 20.9087 15.5C20.9087 14.3624 20.7877 13.2453 20.6409 12.1553C20.416 10.485 19.0326 9.17649 17.349 9.09909C15.9324 9.03397 14.4934 9 12.9087 9C11.324 9 9.88496 9.03397 8.46835 9.09909C6.78482 9.17649 5.40138 10.485 5.1765 12.1553C5.02974 13.2453 4.90869 14.3624 4.90869 15.5C4.90869 16.6376 5.02974 17.7547 5.1765 18.8447Z" stroke="white" stroke-width="1.5"/>
<path d="M8.40869 9V6.5C8.40869 4.01472 10.4234 2 12.9087 2C15.394 2 17.4087 4.01472 17.4087 6.5V9" stroke="white" stroke-width="1.5" stroke-linecap="round" stroke-linejoin="round"/>
<path d="M16.9087 15.4902V15.5002" stroke="white" stroke-width="2" stroke-linecap="round" stroke-linejoin="round"/>
<path d="M12.9087 15.4902V15.5002" stroke="white" stroke-width="2" stroke-linecap="round" stroke-linejoin="round"/>
<path d="M8.90869 15.4902V15.5002" stroke="white" stroke-width="2" stroke-linecap="round" stroke-linejoin="round"/>
</svg>
