<svg width="25" height="24" viewBox="0 0 25 24" fill="none" xmlns="http://www.w3.org/2000/svg">
<path d="M2.90869 6L9.82171 9.91697C12.3703 11.361 13.4471 11.361 15.9957 9.91697L22.9087 6" stroke="white" stroke-width="1.5" stroke-linejoin="round"/>
<path d="M2.92446 13.4756C2.98983 16.5412 3.02252 18.0739 4.15365 19.2094C5.28477 20.3448 6.85902 20.3843 10.0075 20.4634C11.948 20.5122 13.8694 20.5122 15.8099 20.4634C18.9584 20.3843 20.5326 20.3448 21.6638 19.2094C22.7949 18.0739 22.8276 16.5412 22.8929 13.4756C22.914 12.4899 22.914 11.5101 22.8929 10.5244C22.8276 7.45886 22.7949 5.92609 21.6638 4.79066C20.5326 3.65523 18.9584 3.61568 15.8099 3.53657C13.8694 3.48781 11.948 3.48781 10.0075 3.53656C6.85902 3.61566 5.28477 3.65521 4.15364 4.79065C3.02251 5.92608 2.98983 7.45885 2.92445 10.5244C2.90343 11.5101 2.90344 12.4899 2.92446 13.4756Z" stroke="white" stroke-width="1.5" stroke-linejoin="round"/>
</svg>
